<?xml version="1.0" encoding="UTF-8"?>
<svg id="Lag_2" data-name="Lag 2" xmlns="http://www.w3.org/2000/svg" viewBox="0 0 336.14 64.15">
  <defs>
    <style>
      .cls-1, .cls-2 {
        stroke: #1d1d1b;
        stroke-linecap: round;
      }

      .cls-1, .cls-2, .cls-3, .cls-4 {
        stroke-miterlimit: 10;
      }

      .cls-2, .cls-3 {
        fill: #fff;
      }

      .cls-3, .cls-4 {
        stroke: #000;
      }
    </style>
  </defs>
  <g id="Lag_1-2" data-name="Lag 1">
    <path class="cls-4" d="M.5,59.45s3.53,7.06,8.57,0v-20.93h19.16s4.29-3.03,2.27-7.06l-1.77-1.61H8.92V13.22h28.36s3.35-2.59,1.98-5.95l-2.44-2.44H.5v54.61Z"/>
    <path class="cls-4" d="M30.42,57.29s-.46,8.54,7.47,4.12l6.86-15.55h23.48l6.86,15.4s6.1,3.66,7.17-3.81L59.39,6.36s-3.05-2.74-5.79,0l-23.18,50.93Z"/>
    <polygon class="cls-3" points="48.26 37.16 56.34 19.63 64.27 37.16 48.26 37.16"/>
    <path class="cls-3" d="M111.85,28.4s9.15-.94,5.18,5.51l-23.33,16.52s-.76,2.74,0,4.27h58.25s3.2-2.74,0-4.42l-39.8-28.67s-4.73-11.44,2.29-16.77c0,0,7.32-9.76,19.37,0,0,0,.61,7.17-6.86,4.12,0,0-7.93-3.05-8.69,5.79,0,0,.93,3.81,5.12,5.49l33.92,23.94s7.32,4.88,1.83,14.49c0,0-3.2,3.91-5.79,4.02h-59.01s-4.73.1-9.15-8.13c0,0,0-7.93,2.44-8.84l24.25-17.31Z"/>
    <path class="cls-4" d="M166.28,59.43s3.51,7.17,8.08,0v-21.65h26.08v22.26s2.9,5.95,7.93-.15V7.73s-4.27-5.18-7.78,0l-.15,22.57h-26.23V7.58s-4.57-4.88-7.93.15v51.69Z"/>
    <path class="cls-4" d="M215.39,58.97s3.96,6.4,8.54,0V7.73s-4.42-4.57-8.54,0v51.24Z"/>
    <path class="cls-4" d="M293.03,59.25s4.15,6.91,8.06,0V22.4l28.33,39.42s5.3,2.5,6.22-2.57V7.66s-3.22-5.3-7.6,0l-.23,37.31-26.95-38.23s-4.15-3.45-7.83.46v52.05Z"/>
    <circle class="cls-1" cx="258.48" cy="34.03" r="29.61"/>
    <circle class="cls-2" cx="258.48" cy="34.03" r="20.58"/>
  </g>
</svg>