<?xml version="1.0" encoding="UTF-8"?>
<svg id="Layer_2" data-name="Layer 2" xmlns="http://www.w3.org/2000/svg" viewBox="0 0 454.24 251.37">
  <defs>
    <style>
      .cls-1 {
        fill: none;
        stroke: #fff;
        stroke-miterlimit: 10;
      }

      .cls-2 {
        fill: #fff;
      }
    </style>
  </defs>
  <g id="Layer_1-2" data-name="Layer 1">
    <path class="cls-1" d="M227.12,250.87c-58.28,0-113.39-11.71-155.17-32.98C25.87,194.43.5,161.68.5,125.68S25.87,56.94,71.94,33.48C113.73,12.21,168.83.5,227.12.5s113.39,11.71,155.17,32.98c46.07,23.45,71.44,56.2,71.44,92.2s-25.37,68.75-71.44,92.2c-41.78,21.27-96.89,32.98-155.17,32.98Z"/>
    <g>
      <path class="cls-2" d="M55.53,184.29c-43.82-37.16-43.84-80.04,0-117.22,7.56-5.81,16.15-11.07,24.66-15.34-4.76,5.85-6.92,8.88-10.76,15.11-7.21,2.63-10.63,4.02-17.05,6.93-9.9,13.64-17.29,27.06-19.52,44.07,4.96-.28,7.54-.41,12.86-.67-.63,6.76-.63,10.26,0,17.02-5.32-.26-7.89-.39-12.86-.67,4.58,23.83,15.1,40.02,31.85,57.19-3.86-2.49-5.7-3.78-9.18-6.42Z"/>
      <path class="cls-2" d="M91.59,205.08c-24.72-39.76-31.3-80.47-17.18-125.42,3.1-8.87,8.95-18.13,14.92-25.23,6.1-7.26,10.97-11.82,14.39-13.12,5.02-1.91,7.61-2.81,12.92-4.53,3.62-1.17,5.09,1.38,5.26,8.24.17,6.86-.98,15.94-3.33,27.12-9.23,50.23-5.54,98.32,11.61,146.45-5.54-1.5-8.25-2.31-13.54-4.01-11.12-25.73-17.32-50.48-19.64-78.43-6.4-.19-9.53-.29-15.64-.5,2.7,27.15,9.77,50.22,22.36,74.4-5-1.9-7.43-2.9-12.13-4.98ZM81.36,115.71c6.11-.21,9.24-.31,15.64-.5,1.08-13.84,2.75-27.35,6.18-40.84,1.36-5.35,1.98-9.74,1.79-13.13-.19-3.39-1.12-4.78-3.01-4.3-1.92.48-4.28,2.68-7.02,6.58-2.74,3.89-5,8.31-6.55,13.38-3.85,12.61-6.24,25.66-7.04,38.82Z"/>
      <path class="cls-2" d="M177.09,66.7c-3.5.2-5.24.3-8.7.53.74-15.01-.7-21.87-5.14-21.37-2.86.32-5.31,2.38-7.38,6.17-2.07,3.79-3.72,9.27-4.7,16.63-.73,5.5-.49,10.65.77,15.49,5.09,18.8,10.98,37.22,17.45,55.59,3.5,11.37,5.52,21.49,6.83,33.31.31,4.68.49,7,.87,11.6.45,10.25.97,20.56-1.46,30.63-1.96,8.11-4.73,11.65-8.94,11-3.07-.48-4.59-.73-7.61-1.27-4.98-.88-9.63-4.97-13.85-12.18-5.63-9.6-8.82-20.7-10.64-31.69,3.28.36,4.93.53,8.27.86.17,1.49.34,2.67.48,3.54.95,5.86,2.64,10.32,4.9,13.51,2.25,3.19,4.38,4.92,6.39,5.18,2.87.37,4.61-1.2,5.32-4.78.71-3.58.59-8.97-.26-16.29-.65-5.64-2.02-11-4.16-15.99-7.62-17.97-14.63-36.26-20.28-54.95-3.13-9.39-3.92-21.42-2.32-31.15.6-4.4.93-6.58,1.66-10.9,2.46-10.55,5.25-20.67,10.82-29.99,5.02-8.4,9.54-13.14,13.67-13.87,3.02-.54,4.54-.79,7.61-1.27,15.85.44,10.72,33.16,10.4,41.63Z"/>
      <path class="cls-2" d="M198.23,229.85c-6.15-69.41-6.15-138.91,0-208.33,6.47-.46,9.74-.63,16.36-.83-1.17,30.91-1.82,61.81-2.03,92.74,7.74-.02,11.69-.03,19.49-.02-.07-30.97-.29-61.93-.69-92.89,6.69.07,10,.17,16.54.5,4.4,69.76,4.4,139.56,0,209.31-6.55.33-9.86.44-16.54.5.39-30.96.61-61.93.69-92.89-7.8,0-11.75,0-19.49-.02.22,30.93.87,61.83,2.03,92.74-6.62-.2-9.89-.37-16.36-.83Z"/>
      <path class="cls-2" d="M271.97,228.38c9.66-68.39,9.66-137,0-205.4,6.31.71,9.43,1.13,15.55,2.08,13.19,66.93,13.19,134.31,0,201.24-6.12.95-9.23,1.37-15.55,2.08Z"/>
      <path class="cls-2" d="M324.06,32.77c5.57,1.51,8.29,2.32,13.6,4.03,3.62,1.17,8.41,5.83,14.28,13.46,5.79,7.53,11.24,17.39,13.9,26.63,8.84,33.2,8.85,64.34,0,97.58-2.66,9.23-8.11,19.06-13.89,26.59-5.87,7.66-10.68,12.33-14.29,13.5-5.31,1.71-8.03,2.52-13.6,4.03-3.8,1.03-5.68-1.81-6.36-9.04-.87-9.17.22-19.42,1.95-28.39,5.62-37.32,5.62-73.64,0-110.96-1.73-8.97-2.82-19.23-1.95-28.39.69-7.23,2.57-10.06,6.36-9.04ZM335.66,72.14c6.72,36.14,6.71,70.95,0,107.08-1.16,5.53-1.56,10.13-1.17,13.77s1.5,5.18,3.53,4.75c2.03-.43,4.39-2.7,7.03-6.78,2.64-4.08,4.73-8.7,6.08-13.98,7.73-34.8,7.73-67.83,0-102.6-1.36-5.35-3.47-9.98-6.12-14.04-2.65-4.05-4.99-6.3-6.98-6.73-2.01-.43-3.12,1.09-3.53,4.7-.41,3.61,0,8.23,1.17,13.82Z"/>
      <path class="cls-2" d="M362.64,205.08c32.39-52.28,32.39-106.51,0-158.79,1.07.47,1.6.71,2.66,1.2,22.98,24.77,51.43,52.65,62.11,85.69.7-30.23-11.57-49.08-33.2-69.37,1.85,1.29,2.75,1.94,4.5,3.27,43.84,37.18,43.82,80.06,0,117.22-.8.61-1.21.91-2.03,1.51,21.24-17.71,6.88-49.49-1.81-69.25.74,32.72-8.16,58.88-26.43,85.86-2.28,1.09-3.44,1.62-5.8,2.67Z"/>
    </g>
  </g>
</svg>